<svg width="37" height="37" xmlns="http://www.w3.org/2000/svg"><g fill="none" fill-rule="evenodd"><circle stroke="#CCC" stroke-width="1.5" fill-opacity=".9" fill="#FFF" cx="18.5" cy="18.5" r="17.5"/><path d="M18.721 13.815a.568.568 0 0 0-.57.14l-5.82 5.814a.654.654 0 1 0 .925.925l5.442-5.443 5.444 5.444c.256.256.67.256.925 0a.657.657 0 0 0 .002-.927l-5.745-5.8a.604.604 0 0 0-.603-.153zM19.5 26.25v-8.5a.75.75 0 0 0-1.5 0v8.5a.75.75 0 0 0 1.5 0z" fill="#555"/><rect fill="#555" x="12" y="11" width="13" height="1.5" rx=".75"/></g></svg>